<svg width="45mm" height="45mm" version="1.1" viewBox="0 0 45 45" xmlns="http://www.w3.org/2000/svg"><g transform="translate(-84.199 -43.641)"><g transform="translate(2.7657 -6.4016)"><g transform="matrix(.26831 0 0 .26831 82.621 44.779)" fill="var(--theme-color)"><path d="m17.64 99.221c0.46064 1.0747 0.95939 2.1424 1.6424 3.0915 0.68299 0.9491 1.5645 1.781 2.6339 2.2539 1.2371 0.54706 2.6406 0.58212 3.9872 0.45525 1.3467-0.12687 2.6791-0.4061 4.0308-0.45525 2.1341-0.0776 4.2866 0.43379 6.1578 1.4629 1.8712 1.0291 3.4557 2.5732 4.533 4.417l0.53454 5.3454v3.2072c0.30335-1.8218-0.1581-3.7588-1.2503-5.2481s-2.8009-2.5117-4.6296-2.77c-1.7822-0.2517-3.5781 0.19376-5.3454 0.53454-3.559 0.68627-7.3744 0.92812-10.691-0.53454-3.2076-1.4147-5.6592-4.4325-6.3866-7.862-0.72746-3.4295 0.28777-7.1827 2.6449-9.7778 0.60191 1.9979 1.3161 3.962 2.1382 5.8799z"/><path d="m5.8799 112.05c0.86039 1.4169 2.1659 2.559 3.6846 3.2234 1.5187 0.66442 3.2435 0.84808 4.868 0.51835 1.8566-0.37684 3.5216-1.3893 5.0454-2.5149 1.5238-1.1256 2.9551-2.3849 4.5763-3.365 3.6434-2.2026 8.2245-2.8531 12.294-1.6036 1.5305 0.46987 2.9821 1.1957 4.2763 2.1382v6.4145c-0.21186-1.2293-0.88719-2.3731-1.8613-3.1524-0.97411-0.77929-2.2382-1.1871-3.4841-1.1239-0.97668 0.0495-1.9266 0.37845-2.7759 0.86315s-1.6035 1.122-2.2953 1.8132c-1.3836 1.3825-2.537 2.9927-4.0159 4.2727-1.6615 1.4379-3.713 2.4208-5.8748 2.8146-2.1618 0.39381-4.428 0.19752-6.4899-0.56211-2.0619-0.75963-3.9138-2.0806-5.3033-3.7828-1.3895-1.7022-2.313-3.7811-2.6445-5.9533z"/></g><g fill-rule="evenodd"><circle cx="107.57" cy="72.542" r="16.098" fill="var(--theme-color)"/><ellipse cx="107.57" cy="72.542" rx="15.287" ry="4.2151" fill="#fffaff"/><circle cx="99.557" cy="72.441" r="2.4076" fill="#323232"/><circle cx="99.557" cy="72.441" r="1.4395"/><circle cx="100.57" cy="71.874" r=".60196" fill="#fff"/><circle cx="115.17" cy="72.441" r="2.4076" fill="#323232"/><circle cx="115.17" cy="72.441" r="1.4395"/><circle cx="116.19" cy="71.874" r=".60196" fill="#fff"/></g></g></g></svg>
